#N canvas 892 82 514 436 12;
#X obj 29 31 bng 19 250 50 0 start_out start_in start 0 -10 0 12 #fcfcfc #000000 #000000;
#X obj 29 74 tgl 19 0 loop empty loop 0 -10 0 12 #fcfcfc #000000 #000000 0 1;
#X floatatom 157 73 5 0 0 0 tempo - tempo 0;
#N canvas 763 423 466 294 out 0;
#X obj 57 109 dac~;
#X obj 31 37 catch~ outL;
#X obj 170 33 catch~ outR;
#X msg 293 230 stop;
#X obj 186 242 writesf~ 2;
#X obj 278 30 r rec;
#X obj 282 129 symbol;
#X obj 318 101 r out_filename;
#X obj 278 54 spigot;
#X obj 328 31 r rec_switch;
#X obj 290 203 r rec_stop;
#X msg 249 167 open out/ci-4.wav \, start;
#X connect 1 0 0 0;
#X connect 1 0 4 0;
#X connect 2 0 0 1;
#X connect 2 0 4 1;
#X connect 3 0 4 0;
#X connect 5 0 8 0;
#X connect 7 0 6 1;
#X connect 8 0 6 0;
#X connect 9 0 8 1;
#X connect 10 0 3 0;
#X connect 11 0 4 0;
#X restore 316 44 pd out;
#X listbox 160 45 20 0 0 0 out_filename out_filename_in out_filename 0;
#N canvas 674 187 544 624 read_text 0;
#X obj 30 163 textfile;
#X obj 81 194 bng 19 250 50 0 empty empty empty 0 -10 0 12 #fcfcfc #000000 #000000;
#X obj 107 225 s stop;
#X obj 58 228 s end;
#X obj 23 28 r rewind;
#X obj 42 133 r trig;
#X obj 122 419 outlet;
#X obj 45 472 t b f b;
#X obj 89 499 s stop;
#X obj 43 552 del;
#X obj 43 576 s restart;
#X obj 61 526 * 1000;
#X obj 24 396 route /;
#X obj 44 423 r tempo;
#X obj 11 440 / 1;
#X obj 20 60 bng 19 250 50 0 empty empty empty 0 -10 0 12 #fcfcfc #000000 #000000;
#X obj 15 83 symbol;
#X msg 14 108 read read/\$1.txt \, rewind;
#X obj 69 63 r in_filename;
#X obj 238 190 bng 19 250 50 0 empty restart empty 0 -10 0 12 #fcfcfc #000000 #000000;
#X obj 238 214 until;
#X obj 269 189 r stop;
#X obj 377 125 spigot;
#X obj 377 101 r end;
#X floatatom 450 121 5 0 0 2 loopdelay - - 0;
#X obj 377 149 del 5;
#X obj 276 134 s rewind;
#X obj 238 238 s trig;
#X obj 311 279 f;
#X obj 311 303 + 1;
#X msg 356 277 0;
#X obj 359 250 r rewind;
#X obj 377 173 s start_in;
#X obj 428 69 r loop;
#X obj 241 74 r start_out;
#X obj 311 327 s instruction_number;
#X obj 247 105 t b b;
#N canvas 327 280 571 433 notes 0;
#X obj 69 286 textfile;
#X obj 65 224 until;
#X obj 74 100 route n;
#X obj 77 142 t b a;
#X obj 182 163 symbol;
#X msg 194 209 read read/note/\$1.txt \, rewind;
#X obj 68 67 inlet;
#X text 125 40 use <n> as a module and pass the name of a text file in read/note;
#X obj 73 357 outlet;
#X text 128 71 anything not starting with "n" will pass through unaltered;
#X obj 91 195 r notes-stop;
#X obj 167 300 s notes-stop;
#X connect 0 0 8 0;
#X connect 0 1 11 0;
#X connect 1 0 0 0;
#X connect 2 0 3 0;
#X connect 2 1 8 0;
#X connect 3 0 1 0;
#X connect 3 1 4 0;
#X connect 4 0 5 0;
#X connect 5 0 0 0;
#X connect 6 0 2 0;
#X connect 10 0 1 1;
#X restore 20 313 pd notes;
#X connect 0 0 37 0;
#X connect 0 1 1 0;
#X connect 1 0 2 0;
#X connect 1 0 3 0;
#X connect 4 0 15 0;
#X connect 5 0 0 0;
#X connect 7 0 9 0;
#X connect 7 1 11 0;
#X connect 7 2 8 0;
#X connect 9 0 10 0;
#X connect 11 0 9 1;
#X connect 12 0 14 0;
#X connect 12 1 6 0;
#X connect 13 0 14 1;
#X connect 14 0 7 0;
#X connect 15 0 16 0;
#X connect 16 0 17 0;
#X connect 17 0 0 0;
#X connect 18 0 16 1;
#X connect 19 0 20 0;
#X connect 19 0 28 0;
#X connect 20 0 27 0;
#X connect 21 0 20 1;
#X connect 22 0 25 0;
#X connect 23 0 22 0;
#X connect 24 0 25 1;
#X connect 25 0 32 0;
#X connect 28 0 29 0;
#X connect 29 0 28 1;
#X connect 29 0 35 0;
#X connect 30 0 28 1;
#X connect 31 0 30 0;
#X connect 33 0 22 1;
#X connect 34 0 36 0;
#X connect 36 0 19 0;
#X connect 36 1 26 0;
#X connect 37 0 12 0;
#X restore 29 116 pd read_text;
#X listbox 160 21 20 0 0 0 in_filename in_filename_in in_filename 0;
#X floatatom 214 73 10 0 0 3 instruction instruction_number - 12;
#N canvas 0 38 450 300 init 0;
#X obj 40 25 loadbang;
#X obj 122 104 s in_filename_in;
#X obj 252 103 s out_filename_in;
#X obj 45 50 t b b;
#X obj 43 83 s rewind;
#X msg 252 79 symbol rec;
#X msg 122 80 symbol result;
#X connect 0 0 3 0;
#X connect 3 0 4 0;
#X connect 3 1 6 0;
#X connect 3 1 5 0;
#X connect 5 0 2 0;
#X connect 6 0 1 0;
#X restore 316 17 pd init;
#X obj 28 242 rpq~;
#X obj 28 290 *~;
#X obj 30 366 throw~ outL;
#X obj 50 390 throw~ outR;
#X obj 62 259 rpq~;
#X obj 196 225 rpq~;
#X obj 196 249 osc~;
#X obj 196 273 *~;
#X obj 233 246 rpq~;
#X obj 196 204 midiscaler;
#X obj 357 169 s f1;
#X obj 391 169 s f2;
#X obj 426 169 s f3;
#X obj 207 177 r f1;
#X obj 250 178 r f2;
#X obj 288 178 r f3;
#X obj 29 196 midiscaler;
#X obj 49 169 r f1;
#X obj 83 170 r f2;
#X obj 118 170 r f3;
#X obj 461 169 print;
#X obj 28 266 osc~;
#X obj 28 314 fx-dly~;
#X obj 28 338 panner~;
#X obj 200 350 throw~ outL;
#X obj 220 374 throw~ outR;
#X obj 198 298 fx-dly~;
#X obj 198 322 panner~;
#X obj 29 142 route o1 a1 dt1 fb1 dw1 p1 o2 a2 dt2 fb2 fw2 p2 f1 f2 f3, f 61;
#X connect 5 0 37 0;
#X connect 9 0 30 0;
#X connect 10 0 31 0;
#X connect 13 0 10 1;
#X connect 14 0 15 0;
#X connect 15 0 16 0;
#X connect 16 0 35 0;
#X connect 17 0 16 1;
#X connect 18 0 14 0;
#X connect 22 0 18 1;
#X connect 23 0 18 2;
#X connect 24 0 18 3;
#X connect 25 0 9 0;
#X connect 26 0 25 1;
#X connect 27 0 25 2;
#X connect 28 0 25 3;
#X connect 30 0 10 0;
#X connect 31 0 32 0;
#X connect 32 0 11 0;
#X connect 32 1 12 0;
#X connect 35 0 36 0;
#X connect 36 0 33 0;
#X connect 36 1 34 0;
#X connect 37 0 25 0;
#X connect 37 1 13 0;
#X connect 37 2 31 1;
#X connect 37 3 31 2;
#X connect 37 4 31 3;
#X connect 37 5 32 1;
#X connect 37 6 18 0;
#X connect 37 7 17 0;
#X connect 37 8 35 1;
#X connect 37 9 35 2;
#X connect 37 10 35 3;
#X connect 37 11 36 1;
#X connect 37 12 19 0;
#X connect 37 13 20 0;
#X connect 37 14 21 0;
#X connect 37 15 29 0;
