#N canvas 719 109 694 540 12;
#X obj 29 31 bng 19 250 50 0 start_out start_in start 0 -10 0 12 #fcfcfc #000000 #000000;
#X obj 29 74 tgl 19 0 loop empty loop 0 -10 0 12 #fcfcfc #000000 #000000 0 1;
#X floatatom 157 73 5 0 0 0 tempo - tempo 0;
#N canvas 763 423 466 294 out 0;
#X obj 31 37 catch~ outL;
#X obj 170 33 catch~ outR;
#X msg 293 230 stop;
#X obj 186 242 writesf~ 2;
#X obj 278 30 r rec;
#X obj 282 129 symbol;
#X obj 318 101 r out_filename;
#X obj 278 54 spigot;
#X obj 328 31 r rec_switch;
#X obj 290 203 r rec_stop;
#X msg 249 167 open out/ci-6.wav \, start;
#X obj 21 132 *~;
#X obj 84 83 r mainvolume;
#X msg 84 107 \$1 50;
#X obj 84 132 line~;
#X obj 171 180 *~;
#X obj 66 223 dac~;
#X connect 0 0 3 0;
#X connect 0 0 11 0;
#X connect 1 0 3 1;
#X connect 1 0 15 0;
#X connect 2 0 3 0;
#X connect 4 0 7 0;
#X connect 6 0 5 1;
#X connect 7 0 5 0;
#X connect 8 0 7 1;
#X connect 9 0 2 0;
#X connect 10 0 3 0;
#X connect 11 0 16 1;
#X connect 12 0 13 0;
#X connect 13 0 14 0;
#X connect 14 0 11 1;
#X connect 14 0 15 1;
#X connect 15 0 16 0;
#X restore 316 44 pd out;
#X listbox 160 45 20 0 0 0 out_filename out_filename_in out_filename 0;
#N canvas 674 187 544 624 read_text 0;
#X obj 30 163 textfile;
#X obj 81 194 bng 19 250 50 0 empty empty empty 0 -10 0 12 #fcfcfc #000000 #000000;
#X obj 107 225 s stop;
#X obj 58 228 s end;
#X obj 23 28 r rewind;
#X obj 42 133 r trig;
#X obj 122 419 outlet;
#X obj 45 472 t b f b;
#X obj 89 499 s stop;
#X obj 43 552 del;
#X obj 43 576 s restart;
#X obj 61 526 * 1000;
#X obj 24 396 route /;
#X obj 44 423 r tempo;
#X obj 11 440 / 1;
#X obj 20 60 bng 19 250 50 0 empty empty empty 0 -10 0 12 #fcfcfc #000000 #000000;
#X obj 15 83 symbol;
#X msg 14 108 read read/\$1.txt \, rewind;
#X obj 69 63 r in_filename;
#X obj 238 190 bng 19 250 50 0 empty restart empty 0 -10 0 12 #fcfcfc #000000 #000000;
#X obj 238 214 until;
#X obj 269 189 r stop;
#X obj 377 125 spigot;
#X obj 377 101 r end;
#X floatatom 450 121 5 0 0 2 loopdelay - - 0;
#X obj 377 149 del 5;
#X obj 276 134 s rewind;
#X obj 238 238 s trig;
#X obj 311 279 f;
#X obj 311 303 + 1;
#X msg 356 277 0;
#X obj 359 250 r rewind;
#X obj 377 173 s start_in;
#X obj 428 69 r loop;
#X obj 241 74 r start_out;
#X obj 311 327 s instruction_number;
#X obj 247 105 t b b;
#N canvas 327 280 571 433 notes 0;
#X obj 69 286 textfile;
#X obj 65 224 until;
#X obj 74 100 route n;
#X obj 77 142 t b a;
#X obj 182 163 symbol;
#X msg 194 209 read read/note/\$1.txt \, rewind;
#X obj 68 67 inlet;
#X text 125 40 use <n> as a module and pass the name of a text file in read/note;
#X obj 73 357 outlet;
#X text 128 71 anything not starting with "n" will pass through unaltered;
#X obj 91 195 r notes-stop;
#X obj 167 300 s notes-stop;
#X connect 0 0 8 0;
#X connect 0 1 11 0;
#X connect 1 0 0 0;
#X connect 2 0 3 0;
#X connect 2 1 8 0;
#X connect 3 0 1 0;
#X connect 3 1 4 0;
#X connect 4 0 5 0;
#X connect 5 0 0 0;
#X connect 6 0 2 0;
#X connect 10 0 1 1;
#X restore 20 313 pd notes;
#X connect 0 0 37 0;
#X connect 0 1 1 0;
#X connect 1 0 2 0;
#X connect 1 0 3 0;
#X connect 4 0 15 0;
#X connect 5 0 0 0;
#X connect 7 0 9 0;
#X connect 7 1 11 0;
#X connect 7 2 8 0;
#X connect 9 0 10 0;
#X connect 11 0 9 1;
#X connect 12 0 14 0;
#X connect 12 1 6 0;
#X connect 13 0 14 1;
#X connect 14 0 7 0;
#X connect 15 0 16 0;
#X connect 16 0 17 0;
#X connect 17 0 0 0;
#X connect 18 0 16 1;
#X connect 19 0 20 0;
#X connect 19 0 28 0;
#X connect 20 0 27 0;
#X connect 21 0 20 1;
#X connect 22 0 25 0;
#X connect 23 0 22 0;
#X connect 24 0 25 1;
#X connect 25 0 32 0;
#X connect 28 0 29 0;
#X connect 29 0 28 1;
#X connect 29 0 35 0;
#X connect 30 0 28 1;
#X connect 31 0 30 0;
#X connect 33 0 22 1;
#X connect 34 0 36 0;
#X connect 36 0 19 0;
#X connect 36 1 26 0;
#X connect 37 0 12 0;
#X restore 29 116 pd read_text;
#X listbox 160 21 20 0 0 0 in_filename in_filename_in in_filename 0;
#X floatatom 214 73 10 0 0 3 instruction instruction_number - 12;
#N canvas 0 38 450 300 init 0;
#X obj 40 25 loadbang;
#X obj 122 104 s in_filename_in;
#X obj 252 103 s out_filename_in;
#X obj 45 50 t b b;
#X obj 43 83 s rewind;
#X msg 252 79 symbol rec;
#X msg 122 80 symbol result;
#X connect 0 0 3 0;
#X connect 3 0 4 0;
#X connect 3 1 6 0;
#X connect 3 1 5 0;
#X connect 5 0 2 0;
#X connect 6 0 1 0;
#X restore 316 17 pd init;
#X obj 71 165 s dt1;
#X obj 114 165 s fb1;
#X obj 157 165 s dw1;
#X obj 202 165 s p1;
#X obj 285 165 s dt2;
#X obj 328 165 s fb2;
#X obj 370 165 s dw2;
#X obj 412 165 s p2;
#X obj 315 88 hsl 162 19 0 1 0 0 mainvolume empty mainvolume -2 -10 0 12 #fcfcfc #000000 #000000 0 1;
#N canvas 63 101 450 300 sn1 0;
#X obj 26 76 rpq~;
#X obj 26 124 *~;
#X obj 41 272 throw~ outL;
#X obj 61 296 throw~ outR;
#X obj 71 83 rpq~;
#X obj 28 57 midiscaler;
#X obj 48 30 r f1;
#X obj 82 31 r f2;
#X obj 117 31 r f3;
#X obj 39 220 fx-dly~;
#X obj 39 244 panner~;
#X obj 46 196 rpq~;
#X obj 83 195 rpq~;
#X obj 118 195 rpq~;
#X obj 40 154 r dt1;
#X obj 82 161 r fb1;
#X obj 127 169 r dw1;
#X obj 117 245 rpq~;
#X obj 118 220 r p1;
#X obj 20 8 inlet;
#X obj 161 22 inlet;
#X obj 26 100 osc~;
#X connect 0 0 21 0;
#X connect 1 0 9 0;
#X connect 4 0 1 1;
#X connect 5 0 0 0;
#X connect 6 0 5 1;
#X connect 7 0 5 2;
#X connect 8 0 5 3;
#X connect 9 0 10 0;
#X connect 10 0 2 0;
#X connect 10 1 3 0;
#X connect 11 0 9 1;
#X connect 12 0 9 2;
#X connect 13 0 9 3;
#X connect 14 0 11 0;
#X connect 15 0 12 0;
#X connect 16 0 13 0;
#X connect 17 0 10 1;
#X connect 18 0 17 0;
#X connect 19 0 5 0;
#X connect 20 0 4 0;
#X connect 21 0 1 0;
#X restore 23 165 pd sn1;
#N canvas 92 130 450 300 sn2 0;
#X obj 44 82 rpq~;
#X obj 44 130 *~;
#X obj 81 103 rpq~;
#X obj 44 61 midiscaler;
#X obj 55 34 r f1;
#X obj 98 35 r f2;
#X obj 136 35 r f3;
#X obj 44 106 sq~;
#X obj 70 248 throw~ outL;
#X obj 90 272 throw~ outR;
#X obj 68 196 fx-dly~;
#X obj 68 220 panner~;
#X obj 75 172 rpq~;
#X obj 112 171 rpq~;
#X obj 147 171 rpq~;
#X obj 146 221 rpq~;
#X obj 77 146 r dt2;
#X obj 119 146 r fb2;
#X obj 162 147 r dw2;
#X obj 147 196 r p2;
#X obj 41 10 inlet;
#X obj 142 71 inlet;
#X connect 0 0 7 0;
#X connect 1 0 10 0;
#X connect 2 0 1 1;
#X connect 3 0 0 0;
#X connect 4 0 3 1;
#X connect 5 0 3 2;
#X connect 6 0 3 3;
#X connect 7 0 1 0;
#X connect 10 0 11 0;
#X connect 11 0 8 0;
#X connect 11 1 9 0;
#X connect 12 0 10 1;
#X connect 13 0 10 2;
#X connect 14 0 10 3;
#X connect 15 0 11 1;
#X connect 16 0 12 0;
#X connect 17 0 13 0;
#X connect 18 0 14 0;
#X connect 19 0 15 0;
#X connect 20 0 3 0;
#X connect 21 0 2 0;
#X restore 237 165 pd sn2;
#X obj 29 142 route o1 a1 dt1 fb1 dw1 p1 o2 a2 dt2 fb2 dw2 p2, f 61;
#X obj 450 165 s rr1;
#X obj 23 188 r rr1;
#N canvas 63 101 269 386 sq3 0;
#X obj 26 76 rpq~;
#X obj 26 124 *~;
#X obj 36 313 throw~ outL;
#X obj 56 337 throw~ outR;
#X obj 71 83 rpq~;
#X obj 28 57 midiscaler;
#X obj 82 31 r f2;
#X obj 117 31 r f3;
#X obj 34 261 fx-dly~;
#X obj 34 285 panner~;
#X obj 41 237 rpq~;
#X obj 78 236 rpq~;
#X obj 113 236 rpq~;
#X obj 112 286 rpq~;
#X obj 20 8 inlet;
#X obj 161 22 inlet;
#X obj 32 173 bp~, f 6;
#X obj 62 128 r ff3;
#X obj 48 30 r f1;
#X obj 82 153 r fq3;
#X obj 35 195 r dt3;
#X obj 77 202 r fb3;
#X obj 122 210 r dw3;
#X obj 113 261 r p3;
#X obj 26 100 sq~;
#X connect 0 0 24 0;
#X connect 1 0 16 0;
#X connect 4 0 1 1;
#X connect 5 0 0 0;
#X connect 6 0 5 2;
#X connect 7 0 5 3;
#X connect 8 0 9 0;
#X connect 9 0 2 0;
#X connect 9 1 3 0;
#X connect 10 0 8 1;
#X connect 11 0 8 2;
#X connect 12 0 8 3;
#X connect 13 0 9 1;
#X connect 14 0 5 0;
#X connect 15 0 4 0;
#X connect 16 0 8 0;
#X connect 17 0 16 1;
#X connect 18 0 5 1;
#X connect 19 0 16 2;
#X connect 20 0 10 0;
#X connect 21 0 11 0;
#X connect 22 0 12 0;
#X connect 23 0 13 0;
#X connect 24 0 1 0;
#X restore 5 238 pd sq3;
#X obj 22 212 route o3 a3 ff3 fq3 dt3 fb3 dw3 p3 o4 a4 ff4 fq4 dt4 fb4 dw4 p4, f 84;
#X obj 54 238 s ff3;
#X obj 96 237 s fq3;
#X obj 139 239 s dt3;
#X obj 182 239 s fb3;
#X obj 225 239 s dw3;
#X obj 270 239 s p3;
#N canvas 63 101 269 386 sq4 0;
#X obj 26 76 rpq~;
#X obj 26 124 *~;
#X obj 36 313 throw~ outL;
#X obj 56 337 throw~ outR;
#X obj 71 83 rpq~;
#X obj 28 57 midiscaler;
#X obj 82 31 r f2;
#X obj 117 31 r f3;
#X obj 34 261 fx-dly~;
#X obj 34 285 panner~;
#X obj 41 237 rpq~;
#X obj 78 236 rpq~;
#X obj 113 236 rpq~;
#X obj 112 286 rpq~;
#X obj 20 8 inlet;
#X obj 161 22 inlet;
#X obj 32 173 bp~, f 6;
#X obj 48 30 r f1;
#X obj 26 100 sq~;
#X obj 62 128 r ff4;
#X obj 82 153 r fq4;
#X obj 77 202 r fb4;
#X obj 122 210 r dw4;
#X obj 113 261 r p4;
#X obj 35 195 r dt4;
#X connect 0 0 18 0;
#X connect 1 0 16 0;
#X connect 4 0 1 1;
#X connect 5 0 0 0;
#X connect 6 0 5 2;
#X connect 7 0 5 3;
#X connect 8 0 9 0;
#X connect 9 0 2 0;
#X connect 9 1 3 0;
#X connect 10 0 8 1;
#X connect 11 0 8 2;
#X connect 12 0 8 3;
#X connect 13 0 9 1;
#X connect 14 0 5 0;
#X connect 15 0 4 0;
#X connect 16 0 8 0;
#X connect 17 0 5 1;
#X connect 18 0 1 0;
#X connect 19 0 16 1;
#X connect 20 0 16 2;
#X connect 21 0 11 0;
#X connect 22 0 12 0;
#X connect 23 0 13 0;
#X connect 24 0 10 0;
#X restore 312 236 pd sq4;
#X obj 361 236 s ff4;
#X obj 403 235 s fq4;
#X obj 446 237 s dt4;
#X obj 489 237 s fb4;
#X obj 532 237 s dw4;
#X obj 577 237 s p4;
#X obj 612 236 s rr2;
#X obj 26 265 r rr2;
#X obj 25 289 route o5 a5 ff5 fq5 dt5 fb5 dw5 p5 o6 a6 ff6 fq6 dt6 fb6 dw6 p6, f 84;
#N canvas 63 101 269 386 sw5 0;
#X obj 26 76 rpq~;
#X obj 26 124 *~;
#X obj 36 313 throw~ outL;
#X obj 56 337 throw~ outR;
#X obj 71 83 rpq~;
#X obj 28 57 midiscaler;
#X obj 82 31 r f2;
#X obj 117 31 r f3;
#X obj 34 261 fx-dly~;
#X obj 34 285 panner~;
#X obj 41 237 rpq~;
#X obj 78 236 rpq~;
#X obj 113 236 rpq~;
#X obj 112 286 rpq~;
#X obj 20 8 inlet;
#X obj 161 22 inlet;
#X obj 32 173 bp~, f 6;
#X obj 48 30 r f1;
#X obj 26 100 saw~;
#X obj 62 128 r ff5;
#X obj 82 153 r fq5;
#X obj 77 202 r fb5;
#X obj 122 210 r dw5;
#X obj 113 261 r p5;
#X obj 35 195 r dt5;
#X connect 0 0 18 0;
#X connect 1 0 16 0;
#X connect 4 0 1 1;
#X connect 5 0 0 0;
#X connect 6 0 5 2;
#X connect 7 0 5 3;
#X connect 8 0 9 0;
#X connect 9 0 2 0;
#X connect 9 1 3 0;
#X connect 10 0 8 1;
#X connect 11 0 8 2;
#X connect 12 0 8 3;
#X connect 13 0 9 1;
#X connect 14 0 5 0;
#X connect 15 0 4 0;
#X connect 16 0 8 0;
#X connect 17 0 5 1;
#X connect 18 0 1 0;
#X connect 19 0 16 1;
#X connect 20 0 16 2;
#X connect 21 0 11 0;
#X connect 22 0 12 0;
#X connect 23 0 13 0;
#X connect 24 0 10 0;
#X restore 8 315 pd sw5;
#X obj 57 315 s ff5;
#X obj 99 314 s fq5;
#X obj 142 316 s dt5;
#X obj 185 316 s fb5;
#X obj 228 316 s dw5;
#X obj 273 316 s p5;
#N canvas 63 101 269 386 sw6 0;
#X obj 26 76 rpq~;
#X obj 26 124 *~;
#X obj 36 313 throw~ outL;
#X obj 56 337 throw~ outR;
#X obj 71 83 rpq~;
#X obj 28 57 midiscaler;
#X obj 82 31 r f2;
#X obj 117 31 r f3;
#X obj 34 261 fx-dly~;
#X obj 34 285 panner~;
#X obj 41 237 rpq~;
#X obj 78 236 rpq~;
#X obj 113 236 rpq~;
#X obj 112 286 rpq~;
#X obj 20 8 inlet;
#X obj 161 22 inlet;
#X obj 32 173 bp~, f 6;
#X obj 48 30 r f1;
#X obj 26 100 sq~;
#X obj 62 128 r ff6;
#X obj 82 153 r fq6;
#X obj 35 195 r dt6;
#X obj 77 202 r fb6;
#X obj 122 210 r dw6;
#X obj 113 261 r p6;
#X connect 0 0 18 0;
#X connect 1 0 16 0;
#X connect 4 0 1 1;
#X connect 5 0 0 0;
#X connect 6 0 5 2;
#X connect 7 0 5 3;
#X connect 8 0 9 0;
#X connect 9 0 2 0;
#X connect 9 1 3 0;
#X connect 10 0 8 1;
#X connect 11 0 8 2;
#X connect 12 0 8 3;
#X connect 13 0 9 1;
#X connect 14 0 5 0;
#X connect 15 0 4 0;
#X connect 16 0 8 0;
#X connect 17 0 5 1;
#X connect 18 0 1 0;
#X connect 19 0 16 1;
#X connect 20 0 16 2;
#X connect 21 0 10 0;
#X connect 22 0 11 0;
#X connect 23 0 12 0;
#X connect 24 0 13 0;
#X restore 315 313 pd sw6;
#X obj 364 313 s ff6;
#X obj 406 312 s fq6;
#X obj 449 314 s dt6;
#X obj 492 314 s fb6;
#X obj 535 314 s dw6;
#X obj 580 314 s p6;
#X obj 615 313 s rr3;
#X obj 25 341 r rr3;
#N canvas 63 101 269 386 tr7 0;
#X obj 26 76 rpq~;
#X obj 26 124 *~;
#X obj 36 313 throw~ outL;
#X obj 56 337 throw~ outR;
#X obj 71 83 rpq~;
#X obj 28 57 midiscaler;
#X obj 82 31 r f2;
#X obj 117 31 r f3;
#X obj 34 261 fx-dly~;
#X obj 34 285 panner~;
#X obj 41 237 rpq~;
#X obj 78 236 rpq~;
#X obj 113 236 rpq~;
#X obj 112 286 rpq~;
#X obj 20 8 inlet;
#X obj 161 22 inlet;
#X obj 32 173 bp~, f 6;
#X obj 48 30 r f1;
#X obj 26 100 saw~;
#X obj 62 128 r ff5;
#X obj 82 153 r fq5;
#X obj 77 202 r fb5;
#X obj 122 210 r dw5;
#X obj 113 261 r p5;
#X obj 35 195 r dt5;
#X connect 0 0 18 0;
#X connect 1 0 16 0;
#X connect 4 0 1 1;
#X connect 5 0 0 0;
#X connect 6 0 5 2;
#X connect 7 0 5 3;
#X connect 8 0 9 0;
#X connect 9 0 2 0;
#X connect 9 1 3 0;
#X connect 10 0 8 1;
#X connect 11 0 8 2;
#X connect 12 0 8 3;
#X connect 13 0 9 1;
#X connect 14 0 5 0;
#X connect 15 0 4 0;
#X connect 16 0 8 0;
#X connect 17 0 5 1;
#X connect 18 0 1 0;
#X connect 19 0 16 1;
#X connect 20 0 16 2;
#X connect 21 0 11 0;
#X connect 22 0 12 0;
#X connect 23 0 13 0;
#X connect 24 0 10 0;
#X restore 7 391 pd tr7;
#X obj 56 391 s ff7;
#X obj 98 390 s fq7;
#X obj 141 392 s dt7;
#X obj 184 392 s fb7;
#X obj 227 392 s dw7;
#X obj 272 392 s p7;
#N canvas 63 101 269 386 tr8 0;
#X obj 26 76 rpq~;
#X obj 26 124 *~;
#X obj 36 313 throw~ outL;
#X obj 56 337 throw~ outR;
#X obj 71 83 rpq~;
#X obj 28 57 midiscaler;
#X obj 82 31 r f2;
#X obj 117 31 r f3;
#X obj 34 261 fx-dly~;
#X obj 34 285 panner~;
#X obj 41 237 rpq~;
#X obj 78 236 rpq~;
#X obj 113 236 rpq~;
#X obj 112 286 rpq~;
#X obj 20 8 inlet;
#X obj 161 22 inlet;
#X obj 32 173 bp~, f 6;
#X obj 48 30 r f1;
#X obj 26 100 sq~;
#X obj 62 128 r ff6;
#X obj 82 153 r fq6;
#X obj 35 195 r dt6;
#X obj 77 202 r fb6;
#X obj 122 210 r dw6;
#X obj 113 261 r p6;
#X connect 0 0 18 0;
#X connect 1 0 16 0;
#X connect 4 0 1 1;
#X connect 5 0 0 0;
#X connect 6 0 5 2;
#X connect 7 0 5 3;
#X connect 8 0 9 0;
#X connect 9 0 2 0;
#X connect 9 1 3 0;
#X connect 10 0 8 1;
#X connect 11 0 8 2;
#X connect 12 0 8 3;
#X connect 13 0 9 1;
#X connect 14 0 5 0;
#X connect 15 0 4 0;
#X connect 16 0 8 0;
#X connect 17 0 5 1;
#X connect 18 0 1 0;
#X connect 19 0 16 1;
#X connect 20 0 16 2;
#X connect 21 0 10 0;
#X connect 22 0 11 0;
#X connect 23 0 12 0;
#X connect 24 0 13 0;
#X restore 314 389 pd tr8;
#X obj 363 389 s ff8;
#X obj 405 388 s fq8;
#X obj 448 390 s dt8;
#X obj 491 390 s fb8;
#X obj 534 390 s dw8;
#X obj 579 390 s p8;
#X obj 24 365 route o7 a7 ff7 fq7 dt7 fb7 dw7 p7 o8 a8 ff8 fq8 dt8 fb8 dw8 p8, f 84;
#X obj 49 470 s ff7;
#X obj 91 469 s fq7;
#X obj 134 471 s dt7;
#X obj 177 471 s fb7;
#X obj 220 471 s dw7;
#X obj 265 471 s p7;
#X obj 31 419 r rr4;
#X obj 30 444 route a9 ff9 fq9 dt9 fb9 dw9 p9 a10 ff10 fq10 dt10 fb10 dw10 p10, f 84;
#N canvas 63 101 269 386 n9 0;
#X obj 26 124 *~;
#X obj 36 313 throw~ outL;
#X obj 56 337 throw~ outR;
#X obj 71 83 rpq~;
#X obj 34 261 fx-dly~;
#X obj 34 285 panner~;
#X obj 41 237 rpq~;
#X obj 78 236 rpq~;
#X obj 113 236 rpq~;
#X obj 112 286 rpq~;
#X obj 161 22 inlet;
#X obj 32 173 bp~, f 6;
#X obj 62 128 r ff5;
#X obj 82 153 r fq5;
#X obj 77 202 r fb5;
#X obj 122 210 r dw5;
#X obj 113 261 r p5;
#X obj 35 195 r dt5;
#X obj 26 52 noise~;
#X connect 0 0 11 0;
#X connect 3 0 0 1;
#X connect 4 0 5 0;
#X connect 5 0 1 0;
#X connect 5 1 2 0;
#X connect 6 0 4 1;
#X connect 7 0 4 2;
#X connect 8 0 4 3;
#X connect 9 0 5 1;
#X connect 10 0 3 0;
#X connect 11 0 4 0;
#X connect 12 0 11 1;
#X connect 13 0 11 2;
#X connect 14 0 7 0;
#X connect 15 0 8 0;
#X connect 16 0 9 0;
#X connect 17 0 6 0;
#X connect 18 0 0 0;
#X restore 8 471 pd n9;
#N canvas 63 101 269 386 n10 0;
#X obj 26 124 *~;
#X obj 36 313 throw~ outL;
#X obj 56 337 throw~ outR;
#X obj 71 83 rpq~;
#X obj 34 261 fx-dly~;
#X obj 34 285 panner~;
#X obj 41 237 rpq~;
#X obj 78 236 rpq~;
#X obj 113 236 rpq~;
#X obj 112 286 rpq~;
#X obj 161 22 inlet;
#X obj 32 173 bp~, f 6;
#X obj 62 128 r ff5;
#X obj 82 153 r fq5;
#X obj 77 202 r fb5;
#X obj 122 210 r dw5;
#X obj 113 261 r p5;
#X obj 35 195 r dt5;
#X obj 26 52 noise~;
#X connect 0 0 11 0;
#X connect 3 0 0 1;
#X connect 4 0 5 0;
#X connect 5 0 1 0;
#X connect 5 1 2 0;
#X connect 6 0 4 1;
#X connect 7 0 4 2;
#X connect 8 0 4 3;
#X connect 9 0 5 1;
#X connect 10 0 3 0;
#X connect 11 0 4 0;
#X connect 12 0 11 1;
#X connect 13 0 11 2;
#X connect 14 0 7 0;
#X connect 15 0 8 0;
#X connect 16 0 9 0;
#X connect 17 0 6 0;
#X connect 18 0 0 0;
#X restore 303 473 pd n10;
#X obj 614 389 s rr4;
#X obj 353 472 s ff10;
#X obj 403 473 s fq10;
#X obj 450 472 s dt10;
#X obj 497 471 s fb10;
#X obj 547 472 s dw10;
#X obj 592 472 s p10;
#X obj 638 472 print;
#X connect 5 0 20 0;
#X connect 20 0 18 0;
#X connect 20 1 18 1;
#X connect 20 2 9 0;
#X connect 20 3 10 0;
#X connect 20 4 11 0;
#X connect 20 5 12 0;
#X connect 20 6 19 0;
#X connect 20 7 19 1;
#X connect 20 8 13 0;
#X connect 20 9 14 0;
#X connect 20 10 15 0;
#X connect 20 11 16 0;
#X connect 20 12 21 0;
#X connect 22 0 24 0;
#X connect 24 0 23 0;
#X connect 24 1 23 1;
#X connect 24 2 25 0;
#X connect 24 3 26 0;
#X connect 24 4 27 0;
#X connect 24 5 28 0;
#X connect 24 6 29 0;
#X connect 24 7 30 0;
#X connect 24 8 31 0;
#X connect 24 9 31 1;
#X connect 24 10 32 0;
#X connect 24 11 33 0;
#X connect 24 12 34 0;
#X connect 24 13 35 0;
#X connect 24 14 36 0;
#X connect 24 15 37 0;
#X connect 24 16 38 0;
#X connect 39 0 40 0;
#X connect 40 0 41 0;
#X connect 40 1 41 1;
#X connect 40 2 42 0;
#X connect 40 3 43 0;
#X connect 40 4 44 0;
#X connect 40 5 45 0;
#X connect 40 6 46 0;
#X connect 40 7 47 0;
#X connect 40 8 48 0;
#X connect 40 9 48 1;
#X connect 40 10 49 0;
#X connect 40 11 50 0;
#X connect 40 12 51 0;
#X connect 40 13 52 0;
#X connect 40 14 53 0;
#X connect 40 15 54 0;
#X connect 40 16 55 0;
#X connect 56 0 71 0;
#X connect 71 0 57 0;
#X connect 71 1 57 1;
#X connect 71 2 58 0;
#X connect 71 3 59 0;
#X connect 71 4 60 0;
#X connect 71 5 61 0;
#X connect 71 6 62 0;
#X connect 71 7 63 0;
#X connect 71 8 64 0;
#X connect 71 9 64 1;
#X connect 71 10 65 0;
#X connect 71 11 66 0;
#X connect 71 12 67 0;
#X connect 71 13 68 0;
#X connect 71 14 69 0;
#X connect 71 15 70 0;
#X connect 71 16 82 0;
#X connect 78 0 79 0;
#X connect 79 0 80 0;
#X connect 79 1 72 0;
#X connect 79 2 73 0;
#X connect 79 3 74 0;
#X connect 79 4 75 0;
#X connect 79 5 76 0;
#X connect 79 6 77 0;
#X connect 79 7 81 0;
#X connect 79 8 83 0;
#X connect 79 9 84 0;
#X connect 79 10 85 0;
#X connect 79 11 86 0;
#X connect 79 12 87 0;
#X connect 79 13 88 0;
#X connect 79 14 89 0;
