#N canvas 719 109 544 215 12;
#X obj 29 31 bng 19 250 50 0 start_out start_in start 0 -10 0 12 #fcfcfc #000000 #000000;
#X obj 29 74 tgl 19 0 loop loop_in loop 0 -10 0 12 #fcfcfc #000000 #000000 0 1;
#X floatatom 194 65 5 0 0 0 tempo - tempo 0;
#N canvas 763 423 466 294 out 0;
#X obj 31 37 catch~ outL;
#X obj 170 33 catch~ outR;
#X msg 293 230 stop;
#X obj 186 242 writesf~ 2;
#X obj 278 30 r rec;
#X obj 282 129 symbol;
#X obj 318 101 r out_filename;
#X obj 290 203 r rec_stop;
#X obj 21 132 *~;
#X obj 84 83 r mainvolume;
#X msg 84 107 \$1 50;
#X obj 84 132 line~;
#X obj 171 180 *~;
#X obj 66 223 dac~;
#X msg 249 167 open out/\$1.wav \, start;
#X obj 31 61 hip~ 5;
#X obj 184 63 hip~ 5;
#X connect 0 0 15 0;
#X connect 1 0 16 0;
#X connect 2 0 3 0;
#X connect 4 0 5 0;
#X connect 5 0 14 0;
#X connect 6 0 5 1;
#X connect 7 0 2 0;
#X connect 8 0 13 1;
#X connect 9 0 10 0;
#X connect 10 0 11 0;
#X connect 11 0 8 1;
#X connect 11 0 12 1;
#X connect 12 0 13 0;
#X connect 14 0 3 0;
#X connect 15 0 8 0;
#X connect 15 0 3 0;
#X connect 16 0 12 0;
#X connect 16 0 3 1;
#X restore 353 36 pd out;
#X listbox 197 37 20 0 0 0 out_filename out_filename_in out_filename 0;
#N canvas 674 187 544 624 read_text 0;
#X obj 30 163 textfile;
#X obj 81 194 bng 19 250 50 0 empty empty empty 0 -10 0 12 #fcfcfc #000000 #000000;
#X obj 107 225 s stop;
#X obj 58 228 s end;
#X obj 23 28 r rewind;
#X obj 42 133 r trig;
#X obj 122 419 outlet;
#X obj 45 472 t b f b;
#X obj 89 499 s stop;
#X obj 43 552 del;
#X obj 43 576 s restart;
#X obj 61 526 * 1000;
#X obj 24 396 route /;
#X obj 44 423 r tempo;
#X obj 11 440 / 1;
#X obj 20 60 bng 19 250 50 0 empty empty empty 0 -10 0 12 #fcfcfc #000000 #000000;
#X obj 15 83 symbol;
#X msg 14 108 read read/\$1.txt \, rewind;
#X obj 69 63 r in_filename;
#X obj 238 190 bng 19 250 50 0 empty restart empty 0 -10 0 12 #fcfcfc #000000 #000000;
#X obj 238 214 until;
#X obj 269 189 r stop;
#X obj 377 125 spigot;
#X obj 377 101 r end;
#X floatatom 450 121 5 0 0 2 loopdelay - - 0;
#X obj 377 149 del 5;
#X obj 276 134 s rewind;
#X obj 238 238 s trig;
#X obj 311 279 f;
#X obj 311 303 + 1;
#X msg 356 277 0;
#X obj 359 250 r rewind;
#X obj 377 173 s start_in;
#X obj 428 69 r loop;
#X obj 241 74 r start_out;
#X obj 311 327 s instruction_number;
#X obj 247 105 t b b;
#N canvas 327 280 571 433 notes 0;
#X obj 69 286 textfile;
#X obj 65 224 until;
#X obj 74 100 route n;
#X obj 77 142 t b a;
#X obj 182 163 symbol;
#X msg 194 209 read read/note/\$1.txt \, rewind;
#X obj 68 67 inlet;
#X text 125 40 use <n> as a module and pass the name of a text file in read/note;
#X obj 73 357 outlet;
#X text 128 71 anything not starting with "n" will pass through unaltered;
#X obj 91 195 r notes-stop;
#X obj 167 300 s notes-stop;
#X connect 0 0 8 0;
#X connect 0 1 11 0;
#X connect 1 0 0 0;
#X connect 2 0 3 0;
#X connect 2 1 8 0;
#X connect 3 0 1 0;
#X connect 3 1 4 0;
#X connect 4 0 5 0;
#X connect 5 0 0 0;
#X connect 6 0 2 0;
#X connect 10 0 1 1;
#X restore 20 313 pd notes;
#X connect 0 0 37 0;
#X connect 0 1 1 0;
#X connect 1 0 2 0;
#X connect 1 0 3 0;
#X connect 4 0 15 0;
#X connect 5 0 0 0;
#X connect 7 0 9 0;
#X connect 7 1 11 0;
#X connect 7 2 8 0;
#X connect 9 0 10 0;
#X connect 11 0 9 1;
#X connect 12 0 14 0;
#X connect 12 1 6 0;
#X connect 13 0 14 1;
#X connect 14 0 7 0;
#X connect 15 0 16 0;
#X connect 16 0 17 0;
#X connect 17 0 0 0;
#X connect 18 0 16 1;
#X connect 19 0 20 0;
#X connect 19 0 28 0;
#X connect 20 0 27 0;
#X connect 21 0 20 1;
#X connect 22 0 25 0;
#X connect 23 0 22 0;
#X connect 24 0 25 1;
#X connect 25 0 32 0;
#X connect 28 0 29 0;
#X connect 29 0 28 1;
#X connect 29 0 35 0;
#X connect 30 0 28 1;
#X connect 31 0 30 0;
#X connect 33 0 22 1;
#X connect 34 0 36 0;
#X connect 36 0 19 0;
#X connect 36 1 26 0;
#X connect 37 0 12 0;
#X restore 29 116 pd read_text;
#X listbox 197 13 20 0 0 0 in_filename in_filename_in in_filename 0;
#X floatatom 251 65 10 0 0 3 instruction instruction_number - 12;
#N canvas 0 38 554 300 init 0;
#X obj 40 25 loadbang;
#X obj 122 104 s in_filename_in;
#X obj 252 103 s out_filename_in;
#X obj 45 50 t b b;
#X obj 43 83 s rewind;
#X msg 252 79 symbol rec;
#X msg 122 80 symbol result;
#X msg 381 72 0.6;
#X obj 381 96 s mainvolume_init;
#X connect 0 0 3 0;
#X connect 3 0 4 0;
#X connect 3 1 6 0;
#X connect 3 1 5 0;
#X connect 3 1 7 0;
#X connect 5 0 2 0;
#X connect 6 0 1 0;
#X connect 7 0 8 0;
#X restore 353 9 pd init;
#X obj 76 165 s p1;
#X obj 352 80 hsl 162 19 0 1 0 0 mainvolume mainvolume_init mainvolume -2 -10 0 12 #fcfcfc #000000 #000000 0 1;
#N canvas 63 101 416 343 sn1 0;
#X obj 26 76 rpq~;
#X obj 26 124 *~;
#X obj 41 272 throw~ outL;
#X obj 61 296 throw~ outR;
#X obj 78 120 rpq~;
#X obj 28 57 midiscaler;
#X obj 48 30 r f1;
#X obj 82 31 r f2;
#X obj 117 31 r f3;
#X obj 39 220 fx-dly~;
#X obj 39 244 panner~;
#X obj 46 196 rpq~;
#X obj 83 195 rpq~;
#X obj 118 195 rpq~;
#X obj 40 154 r dt1;
#X obj 82 161 r fb1;
#X obj 127 169 r dw1;
#X obj 117 245 rpq~;
#X obj 118 220 r p1;
#X obj 20 8 inlet;
#X obj 161 22 inlet;
#X obj 26 100 osc~;
#X text 237 93 reset phase;
#X obj 195 72 sel 0;
#X obj 160 46 t a f;
#X msg 225 118 0;
#X connect 0 0 21 0;
#X connect 1 0 9 0;
#X connect 4 0 1 1;
#X connect 5 0 0 0;
#X connect 6 0 5 1;
#X connect 7 0 5 2;
#X connect 8 0 5 3;
#X connect 9 0 10 0;
#X connect 10 0 2 0;
#X connect 10 1 3 0;
#X connect 11 0 9 1;
#X connect 12 0 9 2;
#X connect 13 0 9 3;
#X connect 14 0 11 0;
#X connect 15 0 12 0;
#X connect 16 0 13 0;
#X connect 17 0 10 1;
#X connect 18 0 17 0;
#X connect 19 0 5 0;
#X connect 20 0 24 0;
#X connect 21 0 1 0;
#X connect 23 1 25 0;
#X connect 24 0 4 0;
#X connect 24 1 23 0;
#X connect 25 0 21 1;
#X restore 23 165 pd sn1;
#X obj 72 31 bng 19 250 50 0 rec rec_in rec 0 -10 0 12 #fcfcfc #000000 #000000;
#X obj 74 74 bng 19 250 50 0 rec_stop rec_stop_in rec_stop 0 -10 0 12 #fcfcfc #000000 #000000;
#X obj 29 142 route o1 a1 p1;
#X obj 119 164 print;
#X connect 5 0 14 0;
#X connect 14 0 11 0;
#X connect 14 1 11 1;
#X connect 14 2 9 0;
#X connect 14 3 15 0;
