#N canvas 826 110 620 540 12;
#X obj 29 31 bng 19 250 50 0 start_out start_in start 0 -10 0 12 #fcfcfc #000000 #000000;
#X obj 29 74 tgl 19 0 loop empty loop 0 -10 0 12 #fcfcfc #000000 #000000 0 1;
#X floatatom 157 73 5 0 0 0 tempo - tempo 0;
#N canvas 763 423 466 294 out 1;
#X obj 31 37 catch~ outL;
#X obj 170 33 catch~ outR;
#X msg 293 230 stop;
#X obj 186 242 writesf~ 2;
#X obj 278 30 r rec;
#X obj 282 129 symbol;
#X obj 318 101 r out_filename;
#X obj 278 54 spigot;
#X obj 328 31 r rec_switch;
#X obj 290 203 r rec_stop;
#X msg 249 167 open out/ci-6.wav \, start;
#X obj 21 132 *~;
#X obj 84 83 r mainvolume;
#X msg 84 107 \$1 50;
#X obj 84 132 line~;
#X obj 171 180 *~;
#X obj 66 223 dac~;
#X connect 0 0 3 0;
#X connect 0 0 11 0;
#X connect 1 0 3 1;
#X connect 1 0 15 0;
#X connect 2 0 3 0;
#X connect 4 0 7 0;
#X connect 6 0 5 1;
#X connect 7 0 5 0;
#X connect 8 0 7 1;
#X connect 9 0 2 0;
#X connect 10 0 3 0;
#X connect 11 0 16 1;
#X connect 12 0 13 0;
#X connect 13 0 14 0;
#X connect 14 0 11 1;
#X connect 14 0 15 1;
#X connect 15 0 16 0;
#X restore 316 44 pd out;
#X listbox 160 45 20 0 0 0 out_filename out_filename_in out_filename 0;
#N canvas 674 187 544 624 read_text 0;
#X obj 30 163 textfile;
#X obj 81 194 bng 19 250 50 0 empty empty empty 0 -10 0 12 #fcfcfc #000000 #000000;
#X obj 107 225 s stop;
#X obj 58 228 s end;
#X obj 23 28 r rewind;
#X obj 42 133 r trig;
#X obj 122 419 outlet;
#X obj 45 472 t b f b;
#X obj 89 499 s stop;
#X obj 43 552 del;
#X obj 43 576 s restart;
#X obj 61 526 * 1000;
#X obj 24 396 route /;
#X obj 44 423 r tempo;
#X obj 11 440 / 1;
#X obj 20 60 bng 19 250 50 0 empty empty empty 0 -10 0 12 #fcfcfc #000000 #000000;
#X obj 15 83 symbol;
#X msg 14 108 read read/\$1.txt \, rewind;
#X obj 69 63 r in_filename;
#X obj 238 190 bng 19 250 50 0 empty restart empty 0 -10 0 12 #fcfcfc #000000 #000000;
#X obj 238 214 until;
#X obj 269 189 r stop;
#X obj 377 125 spigot;
#X obj 377 101 r end;
#X floatatom 450 121 5 0 0 2 loopdelay - - 0;
#X obj 377 149 del 5;
#X obj 276 134 s rewind;
#X obj 238 238 s trig;
#X obj 311 279 f;
#X obj 311 303 + 1;
#X msg 356 277 0;
#X obj 359 250 r rewind;
#X obj 377 173 s start_in;
#X obj 428 69 r loop;
#X obj 241 74 r start_out;
#X obj 311 327 s instruction_number;
#X obj 247 105 t b b;
#N canvas 327 280 571 433 notes 0;
#X obj 69 286 textfile;
#X obj 65 224 until;
#X obj 74 100 route n;
#X obj 77 142 t b a;
#X obj 182 163 symbol;
#X msg 194 209 read read/note/\$1.txt \, rewind;
#X obj 68 67 inlet;
#X text 125 40 use <n> as a module and pass the name of a text file in read/note;
#X obj 73 357 outlet;
#X text 128 71 anything not starting with "n" will pass through unaltered;
#X obj 91 195 r notes-stop;
#X obj 167 300 s notes-stop;
#X connect 0 0 8 0;
#X connect 0 1 11 0;
#X connect 1 0 0 0;
#X connect 2 0 3 0;
#X connect 2 1 8 0;
#X connect 3 0 1 0;
#X connect 3 1 4 0;
#X connect 4 0 5 0;
#X connect 5 0 0 0;
#X connect 6 0 2 0;
#X connect 10 0 1 1;
#X restore 20 313 pd notes;
#X connect 0 0 37 0;
#X connect 0 1 1 0;
#X connect 1 0 2 0;
#X connect 1 0 3 0;
#X connect 4 0 15 0;
#X connect 5 0 0 0;
#X connect 7 0 9 0;
#X connect 7 1 11 0;
#X connect 7 2 8 0;
#X connect 9 0 10 0;
#X connect 11 0 9 1;
#X connect 12 0 14 0;
#X connect 12 1 6 0;
#X connect 13 0 14 1;
#X connect 14 0 7 0;
#X connect 15 0 16 0;
#X connect 16 0 17 0;
#X connect 17 0 0 0;
#X connect 18 0 16 1;
#X connect 19 0 20 0;
#X connect 19 0 28 0;
#X connect 20 0 27 0;
#X connect 21 0 20 1;
#X connect 22 0 25 0;
#X connect 23 0 22 0;
#X connect 24 0 25 1;
#X connect 25 0 32 0;
#X connect 28 0 29 0;
#X connect 29 0 28 1;
#X connect 29 0 35 0;
#X connect 30 0 28 1;
#X connect 31 0 30 0;
#X connect 33 0 22 1;
#X connect 34 0 36 0;
#X connect 36 0 19 0;
#X connect 36 1 26 0;
#X connect 37 0 12 0;
#X restore 29 116 pd read_text;
#X listbox 160 21 20 0 0 0 in_filename in_filename_in in_filename 0;
#X floatatom 214 73 10 0 0 3 instruction instruction_number - 12;
#N canvas 0 38 450 300 init 0;
#X obj 40 25 loadbang;
#X obj 122 104 s in_filename_in;
#X obj 252 103 s out_filename_in;
#X obj 45 50 t b b;
#X obj 43 83 s rewind;
#X msg 252 79 symbol rec;
#X msg 122 80 symbol result;
#X connect 0 0 3 0;
#X connect 3 0 4 0;
#X connect 3 1 6 0;
#X connect 3 1 5 0;
#X connect 5 0 2 0;
#X connect 6 0 1 0;
#X restore 316 17 pd init;
#X obj 30 243 rpq~;
#X obj 30 291 *~;
#X obj 45 439 throw~ outL;
#X obj 65 463 throw~ outR;
#X obj 64 260 rpq~;
#X obj 243 248 rpq~;
#X obj 243 296 *~;
#X obj 280 269 rpq~;
#X obj 243 227 midiscaler;
#X obj 451 171 s f1;
#X obj 485 170 s f2;
#X obj 518 171 s f3;
#X obj 254 200 r f1;
#X obj 297 201 r f2;
#X obj 335 201 r f3;
#X obj 32 224 midiscaler;
#X obj 52 197 r f1;
#X obj 86 198 r f2;
#X obj 121 198 r f3;
#X obj 555 171 print;
#X obj 43 387 fx-dly~;
#X obj 43 411 panner~;
#X obj 50 363 rpq~;
#X obj 87 362 rpq~;
#X obj 122 362 rpq~;
#X obj 71 171 s dt1;
#X obj 44 321 r dt1;
#X obj 86 328 r fb1;
#X obj 131 336 r dw1;
#X obj 121 412 rpq~;
#X obj 122 387 r p1;
#X obj 114 171 s fb1;
#X obj 157 171 s dw1;
#X obj 202 171 s p1;
#X obj 30 267 sq~;
#X obj 243 272 sq~;
#X obj 269 414 throw~ outL;
#X obj 289 438 throw~ outR;
#X obj 267 362 fx-dly~;
#X obj 267 386 panner~;
#X obj 274 338 rpq~;
#X obj 311 337 rpq~;
#X obj 346 337 rpq~;
#X obj 345 387 rpq~;
#X obj 276 312 r dt2;
#X obj 318 312 r fb2;
#X obj 361 313 r dw2;
#X obj 346 362 r p2;
#X obj 285 169 s dt2;
#X obj 328 169 s fb2;
#X obj 370 169 s dw2;
#X obj 29 142 route o1 a1 dt1 fb1 dw1 p1 o2 a2 dt2 fb2 dw2 p2 f1 f2 f3, f 73;
#X obj 412 170 s p2;
#X obj 315 88 hsl 162 19 0 1 0 0 mainvolume empty mainvolume -2 -10 0 12 #fcfcfc #000000 #000000 0 1;
#X connect 5 0 60 0;
#X connect 9 0 43 0;
#X connect 10 0 29 0;
#X connect 13 0 10 1;
#X connect 14 0 44 0;
#X connect 15 0 47 0;
#X connect 16 0 15 1;
#X connect 17 0 14 0;
#X connect 21 0 17 1;
#X connect 22 0 17 2;
#X connect 23 0 17 3;
#X connect 24 0 9 0;
#X connect 25 0 24 1;
#X connect 26 0 24 2;
#X connect 27 0 24 3;
#X connect 29 0 30 0;
#X connect 30 0 11 0;
#X connect 30 1 12 0;
#X connect 31 0 29 1;
#X connect 32 0 29 2;
#X connect 33 0 29 3;
#X connect 35 0 31 0;
#X connect 36 0 32 0;
#X connect 37 0 33 0;
#X connect 38 0 30 1;
#X connect 39 0 38 0;
#X connect 43 0 10 0;
#X connect 44 0 15 0;
#X connect 47 0 48 0;
#X connect 48 0 45 0;
#X connect 48 1 46 0;
#X connect 49 0 47 1;
#X connect 50 0 47 2;
#X connect 51 0 47 3;
#X connect 52 0 48 1;
#X connect 53 0 49 0;
#X connect 54 0 50 0;
#X connect 55 0 51 0;
#X connect 56 0 52 0;
#X connect 60 0 24 0;
#X connect 60 1 13 0;
#X connect 60 2 34 0;
#X connect 60 3 40 0;
#X connect 60 4 41 0;
#X connect 60 5 42 0;
#X connect 60 6 17 0;
#X connect 60 7 16 0;
#X connect 60 8 57 0;
#X connect 60 9 58 0;
#X connect 60 10 59 0;
#X connect 60 11 61 0;
#X connect 60 12 18 0;
#X connect 60 13 19 0;
#X connect 60 14 20 0;
#X connect 60 15 28 0;
