#N canvas 660 279 382 357 12;
#X obj 27 84 osc~;
#X obj 27 108 *~;
#X obj 73 296 osc~;
#X obj 73 320 outlet~;
#X obj 24 55 inlet~;
#X obj 80 60 inlet~;
#X obj 144 91 osc~;
#X obj 144 115 *~;
#X obj 141 62 inlet~;
#X obj 197 67 inlet~;
#X obj 72 148 +~;
#X obj 73 180 *~;
#X obj 252 67 inlet~;
#X obj 73 204 osc~;
#X connect 0 0 1 0;
#X connect 1 0 10 0;
#X connect 2 0 3 0;
#X connect 4 0 0 0;
#X connect 5 0 1 1;
#X connect 6 0 7 0;
#X connect 7 0 10 1;
#X connect 8 0 6 0;
#X connect 9 0 7 1;
#X connect 10 0 11 0;
#X connect 11 0 13 0;
#X connect 12 0 11 1;
#X connect 13 0 2 0;
