#N canvas 94 130 450 300 12;
#X obj 18 28 inlet~;
#X obj 185 146 *~;
#X obj 70 252 outlet~;
#X obj 256 40 inlet~;
#X obj 205 39 inlet~;
#X obj 306 40 inlet~;
#X obj 70 190 *~;
#X obj 151 75 delwrite~ buf-\$0 5000;
#X obj 181 100 vd~ buf-\$0 250;
#X obj 183 186 *~;
#X obj 82 158 expr~ 1 - $v1;
#X connect 0 0 6 0;
#X connect 0 0 7 0;
#X connect 1 0 7 0;
#X connect 1 0 9 0;
#X connect 3 0 1 1;
#X connect 4 0 8 0;
#X connect 5 0 10 0;
#X connect 5 0 9 1;
#X connect 6 0 2 0;
#X connect 8 0 1 0;
#X connect 9 0 2 0;
#X connect 10 0 6 1;
