#N canvas 94 130 450 300 12;
#X obj 18 28 inlet~;
#X obj 151 75 delwrite~ buf 5000;
#X obj 181 100 vd~ buf 250;
#X obj 185 146 *~;
#X obj 70 252 outlet~;
#X obj 256 40 inlet~;
#X obj 205 39 inlet~;
#X obj 306 40 inlet~;
#X obj 70 190 *~;
#X connect 0 0 1 0;
#X connect 0 0 8 0;
#X connect 2 0 3 0;
#X connect 3 0 1 0;
#X connect 3 0 4 0;
#X connect 5 0 3 1;
#X connect 6 0 2 0;
#X connect 7 0 8 1;
#X connect 8 0 4 0;
