#N canvas 190 154 1089 542 12;
#X obj 339 508 outlet;
#X obj 485 23 inlet;
#X obj 547 23 inlet;
#X obj 613 23 inlet;
#X obj 198 13 inlet;
#X obj 263 63 list length;
#X obj 763 137 sel 3;
#X obj 763 161 bng 19 250 50 0 empty empty empty 0 -10 0 12 #fcfcfc #000000 #000000;
#X obj 710 255 spigot;
#X msg 763 185 1;
#X obj 769 228 tgl 19 0 empty empty empty 0 -10 0 12 #fcfcfc #000000 #000000 0 1;
#X obj 356 267 spigot;
#X obj 423 181 bng 19 250 50 0 empty empty empty 0 -10 0 12 #fcfcfc #000000 #000000;
#X obj 389 181 bng 19 250 50 0 empty empty empty 0 -10 0 12 #fcfcfc #000000 #000000;
#X obj 393 243 tgl 19 0 empty empty empty 0 -10 0 12 #fcfcfc #000000 #000000 0 1;
#X msg 423 207 0;
#X msg 389 207 1;
#X obj 389 155 sel 2;
#X obj 47 261 spigot;
#X obj 159 187 bng 19 250 50 0 empty empty empty 0 -10 0 12 #fcfcfc #000000 #000000;
#X obj 130 187 bng 19 250 50 0 empty empty empty 0 -10 0 12 #fcfcfc #000000 #000000;
#X obj 129 237 tgl 19 0 empty empty empty 0 -10 0 12 #fcfcfc #000000 #000000 0 1;
#X msg 159 211 0;
#X msg 130 211 1;
#X obj 144 159 sel 1;
#X obj 199 42 t a a;
#X obj 356 291 unpack f f;
#X obj 710 279 unpack f f f;
#X obj 371 412 pack f f;
#X obj 687 447 pack f f f;
#X text 480 74 2 \, 12 \, 440 for conventional chromatic;
#X obj 20 350 expr pow($f2 \, (($f1 - 69) / $f3)) * $f4;
#X obj 102 322 r f2-\$0;
#X obj 199 322 r f3-\$0;
#X obj 285 323 r f4-\$0;
#X obj 485 47 s f2-\$0;
#X obj 547 47 s f3-\$0;
#X obj 613 47 s f4-\$0;
#X obj 357 326 expr pow($f2 \, (($f1 - 69) / $f3)) * $f4;
#X obj 439 298 r f2-\$0;
#X obj 536 298 r f3-\$0;
#X obj 622 299 r f4-\$0;
#X obj 704 349 expr pow($f2 \, (($f1 - 69) / $f3)) * $f4;
#X obj 799 320 r f2-\$0;
#X obj 883 321 r f3-\$0;
#X obj 973 324 r f4-\$0;
#X obj 734 402 expr pow($f2 \, (($f1 - 69) / $f3)) * $f4;
#X obj 816 374 r f2-\$0;
#X obj 913 374 r f3-\$0;
#X obj 999 375 r f4-\$0;
#X obj 879 15 loadbang;
#X msg 879 39 2;
#X obj 879 63 s f2-\$0;
#X msg 940 40 12;
#X obj 940 64 s f3-\$0;
#X msg 1003 38 440;
#X obj 1003 62 s f4-\$0;
#X obj 263 87 s llength-\$0;
#X obj 146 128 r llength-\$0;
#X obj 386 125 r llength-\$0;
#X obj 761 107 r llength-\$0;
#X obj 44 229 r llist-\$0;
#X obj 326 238 r llist-\$0;
#X obj 673 216 r llist-\$0;
#X obj 199 66 s llist-\$0;
#X connect 1 0 35 0;
#X connect 2 0 36 0;
#X connect 3 0 37 0;
#X connect 4 0 25 0;
#X connect 5 0 57 0;
#X connect 6 0 7 0;
#X connect 7 0 9 0;
#X connect 8 0 27 0;
#X connect 9 0 10 0;
#X connect 10 0 8 1;
#X connect 11 0 26 0;
#X connect 12 0 15 0;
#X connect 13 0 16 0;
#X connect 14 0 11 1;
#X connect 15 0 14 0;
#X connect 16 0 14 0;
#X connect 17 0 13 0;
#X connect 17 1 12 0;
#X connect 18 0 31 0;
#X connect 19 0 22 0;
#X connect 20 0 23 0;
#X connect 21 0 18 1;
#X connect 22 0 21 0;
#X connect 23 0 21 0;
#X connect 24 0 20 0;
#X connect 24 1 19 0;
#X connect 25 0 64 0;
#X connect 25 1 5 0;
#X connect 26 0 38 0;
#X connect 26 1 28 1;
#X connect 27 0 42 0;
#X connect 27 1 46 0;
#X connect 27 2 29 2;
#X connect 28 0 0 0;
#X connect 29 0 0 0;
#X connect 31 0 0 0;
#X connect 32 0 31 1;
#X connect 33 0 31 2;
#X connect 34 0 31 3;
#X connect 38 0 28 0;
#X connect 39 0 38 1;
#X connect 40 0 38 2;
#X connect 41 0 38 3;
#X connect 42 0 29 0;
#X connect 43 0 42 1;
#X connect 44 0 42 2;
#X connect 45 0 42 3;
#X connect 46 0 29 1;
#X connect 47 0 46 1;
#X connect 48 0 46 2;
#X connect 49 0 46 3;
#X connect 50 0 51 0;
#X connect 50 0 53 0;
#X connect 50 0 55 0;
#X connect 51 0 52 0;
#X connect 53 0 54 0;
#X connect 55 0 56 0;
#X connect 58 0 24 0;
#X connect 59 0 17 0;
#X connect 60 0 6 0;
#X connect 61 0 18 0;
#X connect 62 0 11 0;
#X connect 63 0 8 0;
