#N canvas -849 -563 249 276 12;
#X obj 46 228 outlet~;
#X obj 40 39 inlet~;
#X obj 46 204 *~;
#X obj 117 44 inlet~;
#X obj 112 229 outlet~;
#X obj 112 205 *~;
#X obj 103 79 expr~ 1 - $v1;
#X connect 1 0 2 0;
#X connect 1 0 5 0;
#X connect 2 0 0 0;
#X connect 3 0 6 0;
#X connect 3 0 5 1;
#X connect 5 0 4 0;
#X connect 6 0 2 1;
