#N canvas -941 -629 623 711 12;
#X obj 417 405 f;
#X obj 498 414 f;
#X obj 198 13 inlet;
#X obj 319 410 f;
#X obj 341 324 t b b b;
#X obj 417 312 unpack f f f;
#X obj 375 282 t b a;
#X obj 290 89 list length;
#X floatatom 290 113 5 0 0 0 - - - 0;
#X obj 425 137 sel 3;
#X obj 425 161 bng 19 250 50 0 empty empty empty 0 -10 0 12 #fcfcfc #000000 #000000;
#X obj 459 161 bng 19 250 50 0 empty empty empty 0 -10 0 12 #fcfcfc #000000 #000000;
#X obj 372 255 spigot;
#X msg 425 185 1;
#X obj 431 228 tgl 19 0 empty empty empty 0 -10 0 12 #fcfcfc #000000 #000000 0 1;
#X msg 458 185 0;
#X obj 177 304 spigot;
#X obj 264 218 bng 19 250 50 0 empty empty empty 0 -10 0 12 #fcfcfc #000000 #000000;
#X obj 230 218 bng 19 250 50 0 empty empty empty 0 -10 0 12 #fcfcfc #000000 #000000;
#X obj 234 273 tgl 19 0 empty empty empty 0 -10 0 12 #fcfcfc #000000 #000000 0 1;
#X msg 264 244 0;
#X msg 230 244 1;
#X text 299 30 2 args: ramp to a1 in a2 seconds;
#X obj 497 379 * 1000;
#X obj 230 192 sel 2;
#X obj 17 322 spigot;
#X obj 125 274 bng 19 250 50 0 empty empty empty 0 -10 0 12 #fcfcfc #000000 #000000;
#X obj 96 271 bng 19 250 50 0 empty empty empty 0 -10 0 12 #fcfcfc #000000 #000000;
#X obj 95 321 tgl 19 0 empty empty empty 0 -10 0 12 #fcfcfc #000000 #000000 0 1;
#X msg 125 298 0;
#X msg 96 295 1;
#X obj 110 243 sel 1;
#X obj 176 357 sqrt;
#X obj 176 381 sqrt;
#X obj 278 560 line~;
#X obj 278 584 *~;
#X obj 278 608 *~;
#X obj 225 364 * 1000;
#X obj 277 632 outlet~;
#X obj 417 429 sqrt;
#X obj 417 453 sqrt;
#X obj 176 333 unpack;
#X obj 199 42 t a a;
#X text 299 61 quartic curves sound more natural;
#X text 299 12 1 arg: jump to a1;
#X text 299 45 3 args: ramp from a1 to a2 in a3 seconds;
#X obj 17 346 t f b;
#X msg 54 374 5;
#X obj 18 400 sqrt;
#X obj 18 424 sqrt;
#X obj 18 448 s qlineL-\$0;
#X obj 56 399 s qlineR-\$0;
#X obj 176 412 s qlineL-\$0;
#X obj 225 388 s qlineR-\$0;
#X obj 319 483 s qlineL-\$0;
#X obj 417 477 s qlineL-\$0;
#X obj 498 438 s qlineR-\$0;
#X obj 278 516 r qlineL-\$0;
#X obj 310 538 r qlineR-\$0;
#X obj 319 434 sqrt;
#X obj 319 458 sqrt;
#X connect 0 0 39 0;
#X connect 1 0 56 0;
#X connect 2 0 42 0;
#X connect 3 0 59 0;
#X connect 4 0 0 0;
#X connect 4 1 1 0;
#X connect 4 2 3 0;
#X connect 5 0 3 1;
#X connect 5 1 0 1;
#X connect 5 2 23 0;
#X connect 6 0 4 0;
#X connect 6 1 5 0;
#X connect 7 0 8 0;
#X connect 8 0 9 0;
#X connect 8 0 24 0;
#X connect 8 0 31 0;
#X connect 9 0 10 0;
#X connect 9 1 11 0;
#X connect 10 0 13 0;
#X connect 11 0 15 0;
#X connect 12 0 6 0;
#X connect 13 0 14 0;
#X connect 14 0 12 1;
#X connect 15 0 14 0;
#X connect 16 0 41 0;
#X connect 17 0 20 0;
#X connect 18 0 21 0;
#X connect 19 0 16 1;
#X connect 20 0 19 0;
#X connect 21 0 19 0;
#X connect 23 0 1 1;
#X connect 24 0 18 0;
#X connect 24 1 17 0;
#X connect 25 0 46 0;
#X connect 26 0 29 0;
#X connect 27 0 30 0;
#X connect 28 0 25 1;
#X connect 29 0 28 0;
#X connect 30 0 28 0;
#X connect 31 0 27 0;
#X connect 31 1 26 0;
#X connect 32 0 33 0;
#X connect 33 0 52 0;
#X connect 34 0 35 0;
#X connect 34 0 35 1;
#X connect 35 0 36 0;
#X connect 35 0 36 1;
#X connect 36 0 38 0;
#X connect 37 0 53 0;
#X connect 39 0 40 0;
#X connect 40 0 55 0;
#X connect 41 0 32 0;
#X connect 41 1 37 0;
#X connect 42 0 25 0;
#X connect 42 0 16 0;
#X connect 42 0 12 0;
#X connect 42 1 7 0;
#X connect 46 0 48 0;
#X connect 46 1 47 0;
#X connect 47 0 51 0;
#X connect 48 0 49 0;
#X connect 49 0 50 0;
#X connect 57 0 34 0;
#X connect 58 0 34 1;
#X connect 59 0 60 0;
#X connect 60 0 54 0;
