#N canvas 587 145 450 300 12;
#X obj 81 137 phasor~;
#X obj 143 137 phasor~;
#X obj 114 170 +~;
#X obj 114 194 -~ 1;
#X msg 205 109 0;
#X msg 249 110 0.5;
#X obj 236 32 bng 19 250 50 0 empty empty empty 0 -10 0 12 #fcfcfc #000000 #000000;
#X obj 237 7 loadbang;
#X obj 114 218 outlet~;
#X obj 131 109 *~ -1;
#X obj 77 19 inlet~;
#X connect 0 0 2 0;
#X connect 1 0 2 1;
#X connect 2 0 3 0;
#X connect 3 0 8 0;
#X connect 4 0 0 1;
#X connect 5 0 1 1;
#X connect 6 0 4 0;
#X connect 6 0 5 0;
#X connect 7 0 6 0;
#X connect 9 0 1 0;
#X connect 10 0 0 0;
#X connect 10 0 9 0;
