#N canvas 585 148 283 315 12;
#X obj 68 106 phasor~;
#X obj 152 104 phasor~;
#X obj 68 154 -~ 1;
#X obj 68 178 clip~ 0 1;
#X obj 115 237 +~;
#X obj 152 128 *~ 2;
#X obj 68 130 *~ 2;
#X obj 152 152 -~ 1;
#X obj 152 176 clip~ 0 1;
#X obj 115 261 outlet~;
#X obj 152 58 *~ -1;
#X obj 84 16 inlet~;
#X msg 204 59 0;
#X obj 202 11 loadbang;
#X obj 202 35 bng 19 250 50 0 empty empty empty 0 -10 0 12 #fcfcfc #000000 #000000;
#X connect 0 0 6 0;
#X connect 1 0 5 0;
#X connect 2 0 3 0;
#X connect 3 0 4 0;
#X connect 4 0 9 0;
#X connect 5 0 7 0;
#X connect 6 0 2 0;
#X connect 7 0 8 0;
#X connect 8 0 4 1;
#X connect 10 0 1 0;
#X connect 11 0 0 0;
#X connect 11 0 10 0;
#X connect 12 0 1 1;
#X connect 12 0 0 1;
#X connect 13 0 14 0;
#X connect 14 0 12 0;
