#N canvas 1 38 368 338 12;
#X obj 36 29 noise~;
#X obj 36 108 delwrite~ vdn-buf 2000;
#X obj 217 162 vd~ vdn-buf 100;
#X obj 234 280 throw~ vdn-return;
#X obj 76 79 catch~ vdn-return;
#X obj 204 311 outlet~;
#X text 97 14 a;
#X text 215 72 d;
#X text 293 198 f;
#X obj 36 54 *~;
#X obj 98 36 inlet~;
#X obj 214 101 inlet~;
#X obj 216 249 *~;
#X obj 250 226 inlet~;
#X connect 0 0 9 0;
#X connect 2 0 12 0;
#X connect 4 0 1 0;
#X connect 9 0 1 0;
#X connect 10 0 9 1;
#X connect 11 0 2 0;
#X connect 12 0 3 0;
#X connect 12 0 5 0;
#X connect 13 0 12 1;
